#!OML:ASF E:\motion texture\Top Level 1\Subject 1\Session 1\male.ASF
:FULLY-SPECIFIED
:DEGREES
210
root -3.83754 17.6059 5.00314 502.403 -79.03 -495.728
lowerback 2.98587 -2.64662 5.78108
upperback 0.249962 -3.34095 1.51785
thorax -1.65422 -1.71577 -1.51699
lowerneck 2.81413 -19.5676 -18.2392
upperneck 2.3235 -30.4356 29.5798
head 7.96352 -15.2192 8.73081
rclavicle -6.80837e-015 -2.90226e-014
rhumerus 12.3369 25.7063 -0.48627
rradius 69.4841
rwrist 21.5273
rhand -32.6545 -21.4838
rfingers 7.12502
rthumb -5.88061 -51.3822
lclavicle -6.80837e-015 -2.90226e-014
lhumerus -47.4987 20.2438 59.9334
lradius 24.4215
lwrist -30.9933
lhand -12.4129 16.7915
lfingers 7.12502
lthumb 13.659 46.3233
rfemur -5.43181 2.77684 25.7086
rtibia 46.7992
rfoot -2.64645 -3.34446
rtoes -5.71728
lfemur -31.8088 3.56601 -9.9908
ltibia 29.3601
lfoot -1.6082 -0.652968
ltoes -0.227612
211
root -4.02974 17.633 5.02637 503.2 -79.2351 -496.833
lowerback 2.95985 -2.67419 5.52405
upperback 0.1482 -3.38175 1.4186
thorax -1.7388 -1.73674 -1.47248
lowerneck 2.84994 -19.7176 -18.317
upperneck 2.31433 -30.6015 29.3403
head 7.95557 -15.296 8.62227
rclavicle 2.34069e-014 6.75868e-015
rhumerus 13.5487 21.9838 -0.190948
rradius 62.5673
rwrist 21.0881
rhand -29.6087 -22.2055
rfingers 7.12502
rthumb -2.93956 -52.165
lclavicle 2.34069e-014 6.75868e-015
lhumerus -46.6501 20.383 59.9711
lradius 24.3031
lwrist -30.894
lhand -12.4998 17.266
lfingers 7.12502
lthumb 13.5753 46.8034
rfemur -6.0346 2.50527 25.0887
rtibia 48.5769
rfoot 0.389545 -3.30035
rtoes -2.6611
lfemur -30.7497 3.38406 -10.5683
ltibia 29.3421
lfoot -2.15327 -0.672973
ltoes 0.35156
212
root -4.21948 17.6611 5.04963 504.075 -79.4886 -497.994
lowerback 2.92947 -2.68965 5.25424
upperback 0.0343037 -3.40714 1.33062
thorax -1.83068 -1.75005 -1.40991
lowerneck 2.87128 -19.8616 -18.4173
upperneck 2.25261 -30.7399 29.1123
head 7.93259 -15.3602 8.52575
rclavicle -5.35725e-014 2.18663e-014
rhumerus 14.7213 17.6611 -0.328796
rradius 55.7936
rwrist 20.2813
rhand -25.488 -22.1367
rfingers 7.12502
rthumb 1.04021 -52.1139
lclavicle -5.35725e-014 2.18663e-014
lhumerus -45.741 20.4746 60.0924
lradius 24.2605
lwrist -30.8705
lhand -12.4538 17.6351
lfingers 7.12502
lthumb 13.6197 47.1696
rfemur -6.67864 2.19617 24.4401
rtibia 50.2862
rfoot 3.38677 -3.40182
rtoes 0.468766
lfemur -29.693 3.20576 -11.1844
ltibia 29.2555
lfoot -2.74414 -0.720381
ltoes 0.685887
213
root -4.4069 17.6897 5.07245 504.878 -79.7813 -499.057
lowerback 2.89237 -2.69496 5.01001
upperback -0.0904367 -3.41878 1.25794
thorax -1.92942 -1.75681 -1.34646
lowerneck 2.88471 -19.9951 -18.5363
upperneck 2.1263 -30.8429 28.9017
head 7.88844 -15.4093 8.44573
rclavicle 2.48481e-015 1.35174e-014
rhumerus 15.8983 12.5254 -0.981716
rradius 49.2434
rwrist 19.1496
rhand -20.8373 -21.639
rfingers 7.12502
rthumb 5.5314 -51.5468
lclavicle 2.48481e-015 1.35174e-014
lhumerus -44.7842 20.4871 60.3078
lradius 24.3249
lwrist -30.9002
lhand -12.2749 17.8732
lfingers 7.12502
lthumb 13.792 47.396
rfemur -7.35875 1.84328 23.8018
rtibia 51.9302
rfoot 6.1856 -3.78185
rtoes 3.03144
lfemur -28.6477 3.04513 -11.8079
ltibia 29.1131
lfoot -3.33603 -0.811668
ltoes 0.927574
214
root -4.5927 17.7185 5.09451 505.423 -80.0984 -499.84
lowerback 2.85459 -2.69144 4.83784
upperback -0.227117 -3.41646 1.20319
thorax -2.04226 -1.75763 -1.30487
lowerneck 2.89194 -20.1165 -18.6556
upperneck 1.93426 -30.9062 28.6975
head 7.81635 -15.4415 8.37859
rclavicle -2.95195e-014 -2.38542e-015
rhumerus 17.17 6.26782 -2.29194
rradius 42.9738
rwrist 18.1225
rhand -16.2964 -21.317
rfingers 7.12502
rthumb 9.91419 -51.0635
lclavicle -2.95195e-014 -2.38542e-015
lhumerus -43.8032 20.3704 60.6316
lradius 24.5371
lwrist -30.9266
lhand -11.9922 17.9909
lfingers 7.12502
lthumb 14.0645 47.495
rfemur -8.05901 1.43998 23.2157
rtibia 53.508
rfoot 8.60402 -4.48764
rtoes 4.67333
lfemur -27.6072 2.91401 -12.3972
ltibia 28.9131
lfoot -3.8973 -0.955373
ltoes 1.13355
215
root -4.77718 17.7475 5.11544 505.574 -80.4316 -500.205
lowerback 2.81563 -2.68078 4.7644
upperback -0.374521 -3.40152 1.16497
thorax -2.16957 -1.75364 -1.30136
lowerneck 2.91905 -20.2172 -18.7631
upperneck 1.64605 -30.9186 28.5202
head 7.7022 -15.4556 8.33604
rclavicle -2.42517e-014 3.73715e-014
rhumerus 18.7417 -1.57496 -4.5272
rradius 37.0268
rwrist 17.9362
rhand -12.447 -21.6063
rfingers 7.12502
rthumb 13.6262 -51.1403
lclavicle -2.42517e-014 3.73715e-014
lhumerus -42.816 20.083 61.0703
lradius 24.9232
lwrist -30.8835
lhand -11.6531 18.0134
lfingers 7.12502
lthumb 14.3913 47.4945
rfemur -8.77419 0.97781 22.7072
rtibia 55.0274
rfoot 10.4731 -5.52839
rtoes 5.31188
lfemur -26.5716 2.81534 -12.9241
ltibia 28.6577
lfoot -4.41841 -1.16069
ltoes 1.33254
216
root -4.96042 17.7764 5.13494 505.22 -80.7844 -500.039
lowerback 2.7725 -2.66568 4.79998
upperback -0.529273 -3.3774 1.13949
thorax -2.3073 -1.74686 -1.34566
lowerneck 2.94539 -20.3029 -18.8411
upperneck 1.28361 -30.8903 28.357
head 7.55386 -15.4534 8.30729
rclavicle -9.79014e-015 1.66979e-014
rhumerus 21.0315 -11.555 -8.15862
rradius 31.5432
rwrist 19.4048
rhand -9.69103 -22.447
rfingers 7.12502
rthumb 16.2812 -51.7834
lclavicle -9.79014e-015 1.66979e-014
lhumerus -41.8237 19.5974 61.6248
lradius 25.4849
lwrist -30.7151
lhand -11.3267 17.9863
lfingers 7.12502
lthumb 14.7058 47.4447
rfemur -9.49992 0.439834 22.2848
rtibia 56.4836
rfoot 11.6802 -6.84345
rtoes 5.18949
lfemur -25.5449 2.73788 -13.378
ltibia 28.3493
lfoot -4.89811 -1.42562
ltoes 1.51728
217
root -5.14253 17.8055 5.15276 504.342 -81.1612 -499.326
lowerback 2.73189 -2.64677 4.93307
upperback -0.689575 -3.34483 1.1188
thorax -2.45716 -1.7379 -1.43926
lowerneck 2.96413 -20.377 -18.883
upperneck 0.864896 -30.8324 28.207
head 7.37987 -15.439 8.28768
rclavicle -2.29099e-014 -1.51076e-014
rhumerus 24.9959 -24.0838 -14.1326
rradius 26.7316
rwrist 23.2519
rhand -8.33735 -23.4779
rfingers 7.12502
rthumb 17.5842 -52.7027
lclavicle -2.29099e-014 -1.51076e-014
lhumerus -40.8418 18.896 62.2839
lradius 26.2292
lwrist -30.3793
lhand -11.0367 17.9653
lfingers 7.12502
lthumb 14.9851 47.4031
rfemur -10.2283 -0.177834 21.9389
rtibia 57.8678
rfoot 12.2133 -8.3397
rtoes 4.9013
lfemur -24.5188 2.66654 -13.7672
ltibia 27.9799
lfoot -5.33031 -1.73859
ltoes 1.68889
218
root -5.32393 17.835 5.16897 502.959 -81.5617 -498.098
lowerback 2.69246 -2.62253 5.14634
upperback -0.838034 -3.30295 1.0939
thorax -2.5998 -1.72577 -1.58253
lowerneck 2.96809 -20.443 -18.8815
upperneck 0.375452 -30.7522 28.0973
head 7.18355 -15.4163 8.28193
rclavicle 1.67725e-014 -2.3059e-014
rhumerus 32.7824 -38.5784 -24.3896
rradius 22.8887
rwrist 29.3573
rhand -8.25642 -24.2608
rfingers 7.12502
rthumb 17.6621 -53.4786
lclavicle 1.67725e-014 -2.3059e-014
lhumerus -39.8561 18.0057 63.025
lradius 27.1364
lwrist -29.8722
lhand -10.8166 17.9885
lfingers 7.12502
lthumb 15.1972 47.4104
rfemur -10.9423 -0.865685 21.6514
rtibia 59.1582
rfoot 12.1752 -9.9091
rtoes 4.98452
lfemur -23.4804 2.58575 -14.1059
ltibia 27.555
lfoot -5.72164 -2.08346
ltoes 1.83045
219
root -5.5041 17.8648 5.18343 501.091 -81.9961 -496.37
lowerback 2.66003 -2.59957 5.4099
upperback -0.980791 -3.26095 1.05553
thorax -2.7441 -1.71507 -1.76747
lowerneck 2.95171 -20.4988 -18.8427
upperneck -0.137576 -30.6614 28.0288
head 6.98463 -15.3888 8.28654
rclavicle -5.60945e-014 -5.76476e-015
rhumerus 47.6364 -51.6837 -41.6042
rradius 20.361
rwrist 35.3279
rhand -9.15285 -24.9319
rfingers 7.12502
rthumb 16.7993 -54.2252
lclavicle -5.60945e-014 -5.76476e-015
lhumerus -38.8984 16.9518 63.803
lradius 28.2027
lwrist -29.2128
lhand -10.6592 18.0803
lfingers 7.12502
lthumb 15.3488 47.4907
rfemur -11.649 -1.61272 21.4003
rtibia 60.3373
rfoot 11.692 -11.4485
rtoes 5.68992
lfemur -22.4369 2.47051 -14.4181
ltibia 27.0759
lfoot -6.0654 -2.44258
ltoes 1.98246
220
root -5.68333 17.8952 5.19615 498.669 -82.462 -494.084
lowerback 2.63846 -2.58694 5.69822
upperback -1.11701 -3.23142 1.00488
thorax -2.89076 -1.71177 -1.97781
lowerneck 2.93417 -20.5383 -18.7702
upperneck -0.672146 -30.5577 28.0137
head 6.78315 -15.3575 8.30816
rclavicle -1.15544e-014 -2.10712e-014
rhumerus 68.1263 -58.7836 -63.5608
rradius 19.3323
rwrist 37.0683
rhand -10.5881 -25.7922
rfingers 7.12502
rthumb 15.4173 -55.1973
lclavicle -1.15544e-014 -2.10712e-014
lhumerus -38.0047 15.7866 64.5768
lradius 29.4267
lwrist -28.4218
lhand -10.5929 18.2057
lfingers 7.12502
lthumb 15.4126 47.6111
rfemur -12.3372 -2.39719 21.1765
rtibia 61.3833
rfoot 10.9573 -12.8889
rtoes 7.06014
lfemur -21.3838 2.30736 -14.7127
ltibia 26.5494
lfoot -6.36737 -2.80205
ltoes 2.11179
